<svg id="visual" viewBox="0 0 1120 480" width="1120" height="480" xmlns="http://www.w3.org/2000/svg" xmlns:xlink="http://www.w3.org/1999/xlink" version="1.1"><rect x="0" y="0" width="1120" height="480" fill="#3c1a7d"></rect><path d="M0 365L17 365.5C34 366 68 367 102 370.5C136 374 170 380 203.8 381C237.7 382 271.3 378 305.2 377.3C339 376.7 373 379.3 407 382.2C441 385 475 388 509 384.2C543 380.3 577 369.7 611 369C645 368.3 679 377.7 713 381.7C747 385.7 781 384.3 814.8 380C848.7 375.7 882.3 368.3 916.2 366.7C950 365 984 369 1018 371C1052 373 1086 373 1103 373L1120 373L1120 481L1103 481C1086 481 1052 481 1018 481C984 481 950 481 916.2 481C882.3 481 848.7 481 814.8 481C781 481 747 481 713 481C679 481 645 481 611 481C577 481 543 481 509 481C475 481 441 481 407 481C373 481 339 481 305.2 481C271.3 481 237.7 481 203.8 481C170 481 136 481 102 481C68 481 34 481 17 481L0 481Z" fill="#715df2"></path><path d="M0 408L17 405.8C34 403.7 68 399.3 102 397.7C136 396 170 397 203.8 397.2C237.7 397.3 271.3 396.7 305.2 396.3C339 396 373 396 407 395C441 394 475 392 509 392.7C543 393.3 577 396.7 611 397.7C645 398.7 679 397.3 713 394.7C747 392 781 388 814.8 386.3C848.7 384.7 882.3 385.3 916.2 384.2C950 383 984 380 1018 379.5C1052 379 1086 381 1103 382L1120 383L1120 481L1103 481C1086 481 1052 481 1018 481C984 481 950 481 916.2 481C882.3 481 848.7 481 814.8 481C781 481 747 481 713 481C679 481 645 481 611 481C577 481 543 481 509 481C475 481 441 481 407 481C373 481 339 481 305.2 481C271.3 481 237.7 481 203.8 481C170 481 136 481 102 481C68 481 34 481 17 481L0 481Z" fill="#8f83f6"></path><path d="M0 414L17 411.8C34 409.7 68 405.3 102 406.2C136 407 170 413 203.8 412.7C237.7 412.3 271.3 405.7 305.2 404.7C339 403.7 373 408.3 407 410.5C441 412.7 475 412.3 509 413C543 413.7 577 415.3 611 418C645 420.7 679 424.3 713 421.7C747 419 781 410 814.8 409.8C848.7 409.7 882.3 418.3 916.2 420.5C950 422.7 984 418.3 1018 418.2C1052 418 1086 422 1103 424L1120 426L1120 481L1103 481C1086 481 1052 481 1018 481C984 481 950 481 916.2 481C882.3 481 848.7 481 814.8 481C781 481 747 481 713 481C679 481 645 481 611 481C577 481 543 481 509 481C475 481 441 481 407 481C373 481 339 481 305.2 481C271.3 481 237.7 481 203.8 481C170 481 136 481 102 481C68 481 34 481 17 481L0 481Z" fill="#aea8f8"></path><path d="M0 444L17 443.2C34 442.3 68 440.7 102 437C136 433.3 170 427.7 203.8 425.8C237.7 424 271.3 426 305.2 426.3C339 426.7 373 425.3 407 428.5C441 431.7 475 439.3 509 443C543 446.7 577 446.3 611 444C645 441.7 679 437.3 713 436.8C747 436.3 781 439.7 814.8 438.8C848.7 438 882.3 433 916.2 432.8C950 432.7 984 437.3 1018 438.3C1052 439.3 1086 436.7 1103 435.3L1120 434L1120 481L1103 481C1086 481 1052 481 1018 481C984 481 950 481 916.2 481C882.3 481 848.7 481 814.8 481C781 481 747 481 713 481C679 481 645 481 611 481C577 481 543 481 509 481C475 481 441 481 407 481C373 481 339 481 305.2 481C271.3 481 237.7 481 203.8 481C170 481 136 481 102 481C68 481 34 481 17 481L0 481Z" fill="#cecdf7"></path><path d="M0 444L17 444.8C34 445.7 68 447.3 102 449.7C136 452 170 455 203.8 454.3C237.7 453.7 271.3 449.3 305.2 448.5C339 447.7 373 450.3 407 451.2C441 452 475 451 509 449.8C543 448.7 577 447.3 611 450C645 452.7 679 459.3 713 459C747 458.7 781 451.3 814.8 450.7C848.7 450 882.3 456 916.2 456.5C950 457 984 452 1018 450.2C1052 448.3 1086 449.7 1103 450.3L1120 451L1120 481L1103 481C1086 481 1052 481 1018 481C984 481 950 481 916.2 481C882.3 481 848.7 481 814.8 481C781 481 747 481 713 481C679 481 645 481 611 481C577 481 543 481 509 481C475 481 441 481 407 481C373 481 339 481 305.2 481C271.3 481 237.7 481 203.8 481C170 481 136 481 102 481C68 481 34 481 17 481L0 481Z" fill="#f1f1f3"></path></svg>