<svg id="visual" viewBox="0 0 1120 450" width="1120" height="450" xmlns="http://www.w3.org/2000/svg" xmlns:xlink="http://www.w3.org/1999/xlink" version="1.1"><rect x="0" y="0" width="1120" height="450" fill="#3c1a7d"></rect><path d="M0 106L17 105.5C34 105 68 104 102 100.8C136 97.7 170 92.3 203.8 91.3C237.7 90.3 271.3 93.7 305.2 94.2C339 94.7 373 92.3 407 89.7C441 87 475 84 509 87.5C543 91 577 101 611 101.7C645 102.3 679 93.7 713 90C747 86.3 781 87.7 814.8 91.8C848.7 96 882.3 103 916.2 104.5C950 106 984 102 1018 100C1052 98 1086 98 1103 98L1120 98L1120 0L1103 0C1086 0 1052 0 1018 0C984 0 950 0 916.2 0C882.3 0 848.7 0 814.8 0C781 0 747 0 713 0C679 0 645 0 611 0C577 0 543 0 509 0C475 0 441 0 407 0C373 0 339 0 305.2 0C271.3 0 237.7 0 203.8 0C170 0 136 0 102 0C68 0 34 0 17 0L0 0Z" fill="#715df2"></path><path d="M0 66L17 68C34 70 68 74 102 75.5C136 77 170 76 203.8 75.8C237.7 75.7 271.3 76.3 305.2 76.7C339 77 373 77 407 78C441 79 475 81 509 80.3C543 79.7 577 76.3 611 75.3C645 74.3 679 75.7 713 78.2C747 80.7 781 84.3 814.8 85.8C848.7 87.3 882.3 86.7 916.2 87.8C950 89 984 92 1018 92.5C1052 93 1086 91 1103 90L1120 89L1120 0L1103 0C1086 0 1052 0 1018 0C984 0 950 0 916.2 0C882.3 0 848.7 0 814.8 0C781 0 747 0 713 0C679 0 645 0 611 0C577 0 543 0 509 0C475 0 441 0 407 0C373 0 339 0 305.2 0C271.3 0 237.7 0 203.8 0C170 0 136 0 102 0C68 0 34 0 17 0L0 0Z" fill="#8f83f6"></path><path d="M0 59L17 61.2C34 63.3 68 67.7 102 67C136 66.3 170 60.7 203.8 61C237.7 61.3 271.3 67.7 305.2 68.7C339 69.7 373 65.3 407 63.3C441 61.3 475 61.7 509 61C543 60.3 577 58.7 611 56.2C645 53.7 679 50.3 713 52.8C747 55.3 781 63.7 814.8 63.8C848.7 64 882.3 56 916.2 54C950 52 984 56 1018 56C1052 56 1086 52 1103 50L1120 48L1120 0L1103 0C1086 0 1052 0 1018 0C984 0 950 0 916.2 0C882.3 0 848.7 0 814.8 0C781 0 747 0 713 0C679 0 645 0 611 0C577 0 543 0 509 0C475 0 441 0 407 0C373 0 339 0 305.2 0C271.3 0 237.7 0 203.8 0C170 0 136 0 102 0C68 0 34 0 17 0L0 0Z" fill="#aea8f8"></path><path d="M0 31L17 31.8C34 32.7 68 34.3 102 37.8C136 41.3 170 46.7 203.8 48.5C237.7 50.3 271.3 48.7 305.2 48.5C339 48.3 373 49.7 407 46.7C441 43.7 475 36.3 509 32.8C543 29.3 577 29.7 611 31.8C645 34 679 38 713 38.5C747 39 781 36 814.8 36.8C848.7 37.7 882.3 42.3 916.2 42.5C950 42.7 984 38.3 1018 37.3C1052 36.3 1086 38.7 1103 39.8L1120 41L1120 0L1103 0C1086 0 1052 0 1018 0C984 0 950 0 916.2 0C882.3 0 848.7 0 814.8 0C781 0 747 0 713 0C679 0 645 0 611 0C577 0 543 0 509 0C475 0 441 0 407 0C373 0 339 0 305.2 0C271.3 0 237.7 0 203.8 0C170 0 136 0 102 0C68 0 34 0 17 0L0 0Z" fill="#cecdf7"></path><path d="M0 32L17 31.2C34 30.3 68 28.7 102 26.5C136 24.3 170 21.7 203.8 22.3C237.7 23 271.3 27 305.2 27.7C339 28.3 373 25.7 407 25C441 24.3 475 25.7 509 26.8C543 28 577 29 611 26.3C645 23.7 679 17.3 713 17.7C747 18 781 25 814.8 25.7C848.7 26.3 882.3 20.7 916.2 20.2C950 19.7 984 24.3 1018 26C1052 27.7 1086 26.3 1103 25.7L1120 25L1120 0L1103 0C1086 0 1052 0 1018 0C984 0 950 0 916.2 0C882.3 0 848.7 0 814.8 0C781 0 747 0 713 0C679 0 645 0 611 0C577 0 543 0 509 0C475 0 441 0 407 0C373 0 339 0 305.2 0C271.3 0 237.7 0 203.8 0C170 0 136 0 102 0C68 0 34 0 17 0L0 0Z" fill="#f1f1f3"></path></svg>